<svg id="svg" xmlns="http://www.w3.org/2000/svg" xmlns:xlink="http://www.w3.org/1999/xlink" width="400" height="444.1666666666667" viewBox="0, 0, 400,444.1666666666667"><g id="svgg"><path id="path0" d="M372.321 2.346 C 371.042 2.903,369.334 4.545,367.900 6.596 C 366.437 8.689,360.994 15.333,356.806 20.139 C 355.208 21.972,353.475 24.109,352.954 24.887 C 352.433 25.665,351.212 27.213,350.240 28.326 C 343.877 35.612,339.998 42.633,341.266 44.569 C 342.499 46.450,345.158 45.369,347.988 41.838 C 350.772 38.363,358.546 36.558,360.154 39.012 C 361.809 41.538,360.549 47.992,357.830 50.914 C 355.459 53.462,355.043 54.529,356.009 55.596 C 356.428 56.060,356.427 56.151,355.985 56.825 C 355.418 57.690,355.346 57.702,359.216 56.265 C 363.896 54.527,365.781 52.798,391.788 26.389 C 395.960 22.153,396.197 21.364,393.952 19.196 C 391.670 16.992,386.090 12.121,384.849 11.250 C 384.197 10.792,381.870 8.667,379.679 6.528 C 374.591 1.561,374.389 1.447,372.321 2.346 M355.475 3.340 C 353.017 5.504,353.031 9.573,355.500 10.505 C 358.182 11.518,358.354 11.119,356.208 8.868 C 354.236 6.801,355.004 6.502,357.222 8.472 C 359.250 10.273,361.824 9.759,361.986 7.521 C 362.009 7.204,362.040 6.821,362.056 6.670 C 362.082 6.405,361.475 5.612,359.482 3.304 C 358.196 1.817,357.195 1.826,355.475 3.340 M371.924 10.732 C 373.065 12.182,372.428 15.258,370.808 16.125 C 369.166 17.003,366.320 15.788,366.156 14.139 C 365.873 11.273,370.295 8.660,371.924 10.732 M349.097 10.463 C 348.134 10.727,348.647 11.400,350.535 12.351 C 353.059 13.622,354.008 15.048,353.000 16.056 C 352.069 16.987,350.373 16.195,349.592 14.465 C 348.542 12.135,345.794 13.811,346.299 16.472 C 347.377 22.144,355.243 20.896,354.931 15.103 C 354.764 12.011,351.866 9.706,349.097 10.463 M365.278 18.611 C 366.648 19.981,364.189 24.683,361.343 26.134 L 360.246 26.694 359.528 26.055 C 357.220 24.000,357.215 23.993,357.518 23.123 C 358.611 19.987,363.697 17.030,365.278 18.611 M340.575 21.320 C 336.880 23.204,338.247 28.469,342.586 29.064 C 345.075 29.405,346.395 28.214,346.383 25.639 C 346.366 21.915,343.535 19.811,340.575 21.320 M396.477 23.403 C 396.167 23.747,395.408 24.782,394.792 25.705 C 394.175 26.627,393.144 27.815,392.501 28.344 C 390.311 30.145,380.508 39.851,377.783 42.917 C 374.214 46.931,366.400 54.656,365.006 55.547 C 357.171 60.557,353.256 60.301,350.549 54.604 C 349.341 52.060,348.582 51.374,345.000 49.589 C 343.854 49.018,342.542 48.274,342.083 47.936 C 339.406 45.962,340.985 48.025,344.120 50.596 C 345.444 51.683,347.653 53.713,349.028 55.108 C 350.403 56.503,352.267 58.271,353.171 59.038 C 355.553 61.057,355.497 61.647,352.682 64.216 C 351.509 65.286,349.254 67.744,347.672 69.678 C 346.089 71.612,343.991 74.069,343.008 75.139 C 342.026 76.208,340.031 78.521,338.575 80.278 C 337.119 82.035,335.698 83.660,335.416 83.889 C 335.135 84.118,333.442 86.056,331.654 88.194 C 329.866 90.333,327.935 92.521,327.361 93.056 C 326.788 93.590,325.128 95.518,323.673 97.339 C 322.218 99.160,320.134 101.597,319.043 102.755 C 317.951 103.914,315.919 106.236,314.527 107.917 C 313.135 109.597,311.534 111.410,310.969 111.944 C 310.403 112.479,309.218 113.854,308.334 115.000 C 307.449 116.146,305.589 118.333,304.199 119.861 C 302.809 121.389,300.684 123.833,299.478 125.293 C 298.271 126.752,296.113 129.253,294.683 130.850 C 293.253 132.447,291.462 134.503,290.703 135.419 C 289.943 136.334,288.318 138.208,287.090 139.583 C 285.863 140.958,283.297 143.946,281.388 146.222 C 273.391 155.757,269.032 160.832,265.869 164.289 C 264.742 165.520,263.063 167.465,262.138 168.611 C 261.212 169.757,259.759 171.453,258.908 172.380 C 258.057 173.307,256.520 175.057,255.491 176.269 C 254.463 177.481,252.713 179.482,251.602 180.716 C 250.492 181.949,248.772 183.949,247.780 185.160 C 246.788 186.371,244.413 188.995,242.502 190.993 C 238.908 194.749,232.941 201.439,230.099 204.897 C 229.204 205.986,226.718 208.861,224.574 211.286 C 222.430 213.711,219.520 217.094,218.107 218.805 C 216.694 220.516,214.862 222.518,214.036 223.254 C 211.469 225.542,211.222 226.667,212.222 231.528 C 215.498 247.448,205.390 263.376,189.722 266.984 C 163.451 273.034,142.382 246.455,154.542 222.605 C 155.078 221.554,155.807 220.303,156.161 219.825 C 159.993 214.656,160.062 214.589,165.410 210.833 C 170.104 207.536,175.216 206.244,182.639 206.476 C 189.028 206.676,189.644 206.442,192.017 202.917 C 192.634 202.000,194.914 199.539,197.083 197.447 C 199.252 195.356,201.764 192.668,202.666 191.475 C 203.568 190.282,204.404 189.233,204.523 189.145 C 205.316 188.558,210.833 182.942,211.733 181.806 C 212.337 181.042,215.357 177.854,218.443 174.722 C 221.529 171.590,225.449 167.396,227.154 165.401 C 228.859 163.406,231.012 161.133,231.937 160.351 C 232.863 159.568,234.816 157.513,236.278 155.783 C 237.739 154.054,239.858 151.789,240.987 150.749 C 242.115 149.710,244.195 147.462,245.608 145.754 C 247.022 144.047,250.000 140.869,252.226 138.692 C 254.452 136.515,256.696 134.075,257.213 133.270 C 257.731 132.464,259.516 130.556,261.181 129.028 C 262.846 127.500,264.877 125.375,265.693 124.306 C 266.510 123.236,269.012 120.549,271.253 118.333 C 273.495 116.118,276.031 113.431,276.890 112.361 C 277.748 111.292,280.398 108.417,282.777 105.972 C 285.157 103.528,288.026 100.465,289.153 99.167 C 290.280 97.868,292.723 95.306,294.581 93.472 C 296.439 91.639,298.916 88.951,300.085 87.500 C 301.254 86.049,302.986 84.195,303.933 83.380 C 304.880 82.566,306.657 80.691,307.882 79.214 C 309.106 77.736,311.692 74.965,313.628 73.056 C 315.564 71.146,317.864 68.708,318.741 67.639 C 319.617 66.569,322.416 63.568,324.959 60.970 C 327.502 58.371,330.521 55.125,331.667 53.756 C 332.813 52.386,334.963 50.004,336.445 48.462 C 339.350 45.438,340.256 43.628,340.721 39.920 C 340.962 37.994,340.547 38.434,339.596 41.111 C 338.616 43.869,335.887 47.489,331.534 51.806 C 329.685 53.639,326.685 56.826,324.868 58.889 C 323.050 60.951,319.920 64.326,317.913 66.389 C 315.906 68.451,313.849 70.701,313.342 71.389 C 312.835 72.076,310.595 74.466,308.363 76.698 C 301.422 83.643,294.300 91.188,293.321 92.634 C 292.806 93.395,290.774 95.583,288.805 97.495 C 286.836 99.407,284.843 101.535,284.375 102.222 C 283.907 102.910,281.692 105.347,279.454 107.639 C 277.215 109.931,274.463 112.909,273.338 114.258 C 272.212 115.607,270.142 117.794,268.736 119.119 C 267.330 120.444,265.051 122.853,263.671 124.473 C 262.291 126.093,260.206 128.281,259.039 129.334 C 257.871 130.388,256.149 132.188,255.212 133.333 C 254.275 134.479,251.807 137.167,249.728 139.306 C 247.648 141.444,244.708 144.569,243.194 146.250 C 241.680 147.931,238.867 150.931,236.944 152.917 C 235.020 154.903,232.866 157.290,232.157 158.221 C 231.448 159.152,228.437 162.277,225.467 165.166 C 222.497 168.054,219.250 171.429,218.253 172.664 C 217.255 173.900,215.628 175.649,214.638 176.552 C 213.647 177.456,212.064 179.162,211.119 180.346 C 210.175 181.529,208.334 183.466,207.029 184.651 C 205.724 185.836,204.149 187.551,203.528 188.462 C 202.907 189.372,200.910 191.560,199.089 193.323 C 197.268 195.085,194.971 197.528,193.984 198.750 C 190.782 202.715,189.356 203.501,185.880 203.219 C 179.967 202.738,179.516 202.736,176.942 203.173 C 165.177 205.171,157.830 210.261,151.555 220.761 C 142.033 236.693,150.316 261.104,167.698 268.340 C 171.052 269.736,170.780 268.837,167.267 266.914 C 153.796 259.541,147.079 246.332,149.303 231.582 C 151.631 216.133,166.650 203.314,181.652 203.972 C 188.072 204.253,188.118 204.857,181.736 205.086 C 173.415 205.384,167.516 207.248,162.639 211.119 C 147.808 222.891,145.345 242.333,156.814 257.110 C 169.346 273.257,195.384 272.984,207.328 256.579 C 211.191 251.274,212.113 249.306,213.078 244.306 C 213.373 242.778,213.761 240.798,213.941 239.906 C 214.207 238.587,214.181 237.419,213.800 233.656 C 213.360 229.311,213.469 225.697,213.977 227.778 C 217.030 240.280,216.045 246.924,209.748 256.323 C 203.152 266.168,193.053 271.109,179.528 271.111 C 174.173 271.111,172.306 271.398,171.110 272.405 C 169.271 273.952,161.957 282.770,160.482 285.218 C 154.836 294.588,157.528 304.906,167.736 313.015 C 179.900 322.678,187.306 324.627,194.358 320.023 C 196.515 318.615,204.168 310.726,206.239 307.775 C 207.150 306.478,208.495 304.749,209.228 303.933 C 213.992 298.631,221.361 284.956,224.159 276.227 C 229.466 259.672,227.965 246.327,219.833 237.756 C 217.013 234.785,215.658 231.736,215.124 227.161 C 214.888 225.147,215.405 224.199,218.822 220.367 C 220.161 218.867,221.689 217.076,222.218 216.389 C 222.747 215.701,224.373 213.826,225.832 212.222 C 229.179 208.542,239.095 197.039,241.611 193.919 C 242.387 192.957,246.427 189.385,247.384 188.815 C 247.549 188.717,247.459 189.287,247.184 190.082 C 246.212 192.895,246.811 195.134,248.930 196.609 C 250.389 197.624,251.575 198.863,255.101 203.056 C 256.578 204.813,258.972 207.625,260.419 209.306 C 269.184 219.479,272.646 227.453,272.599 237.361 C 272.564 244.683,269.607 254.177,265.879 258.938 C 264.125 261.178,260.376 265.652,259.404 266.667 C 258.133 267.993,247.576 277.065,245.000 279.044 C 243.854 279.924,242.167 281.294,241.250 282.088 C 240.333 282.882,238.771 284.117,237.778 284.833 C 235.761 286.286,235.092 286.988,231.030 291.903 C 226.982 296.801,222.267 304.538,219.554 310.737 C 215.971 318.921,214.735 323.040,209.317 344.861 C 204.578 363.946,202.858 369.368,199.669 375.278 C 199.051 376.424,197.826 378.805,196.947 380.570 C 186.317 401.921,165.962 417.595,143.333 421.853 C 139.963 422.487,126.921 422.579,123.611 421.991 C 112.107 419.950,101.133 415.805,91.528 409.873 C 90.000 408.929,87.872 407.646,86.800 407.021 C 82.661 404.609,64.778 390.748,60.026 386.268 C 58.866 385.174,57.229 383.742,56.389 383.086 C 52.311 379.900,34.370 362.908,30.137 358.222 C 29.157 357.138,26.816 354.563,24.936 352.500 C 23.055 350.438,21.213 348.313,20.841 347.778 C 20.470 347.243,19.577 346.118,18.856 345.278 C 12.149 337.454,3.833 320.394,2.756 312.248 C 2.602 311.088,2.281 308.778,2.042 307.114 C 1.549 303.682,1.482 298.172,1.903 295.694 C 3.525 286.151,4.335 283.005,6.583 277.514 C 11.575 265.317,19.339 253.649,25.833 248.580 C 26.674 247.924,28.236 246.628,29.306 245.699 C 37.142 238.894,53.320 230.200,67.778 225.025 C 69.993 224.232,73.681 222.886,75.972 222.034 C 78.264 221.182,80.764 220.300,81.528 220.073 C 86.818 218.504,99.803 212.941,103.303 210.744 C 104.618 209.918,106.569 208.788,107.639 208.233 C 110.320 206.841,115.231 203.077,121.630 197.511 C 124.732 194.812,130.079 188.065,132.095 184.306 C 132.669 183.236,133.847 181.236,134.715 179.861 C 135.582 178.486,137.193 175.736,138.294 173.750 C 148.418 155.490,165.211 144.365,179.583 146.397 C 186.239 147.338,192.256 149.852,197.917 154.059 C 198.833 154.740,200.673 156.011,202.004 156.885 C 204.866 158.761,209.974 162.657,213.311 165.508 C 217.061 168.711,218.889 169.565,218.889 168.115 C 218.889 167.609,213.948 163.314,209.444 159.904 C 208.299 159.036,206.674 157.760,205.833 157.069 C 198.791 151.274,188.003 145.591,182.361 144.703 C 165.039 141.976,146.779 153.821,135.866 174.866 C 134.604 177.299,133.038 180.106,132.386 181.103 C 131.733 182.101,130.720 183.729,130.134 184.722 C 125.468 192.634,112.550 204.312,103.472 208.827 C 102.556 209.282,100.474 210.357,98.847 211.215 C 94.590 213.460,90.636 215.096,81.374 218.446 C 62.574 225.246,57.071 227.422,50.139 230.798 C 34.128 238.593,20.959 248.829,14.778 258.280 C 2.872 276.488,-1.845 292.887,0.302 308.611 C 0.955 313.399,1.020 315.140,0.751 320.726 C 0.008 336.212,2.227 348.651,6.851 354.916 C 10.425 359.758,14.774 365.145,17.664 368.312 C 18.442 369.164,20.176 371.166,21.518 372.761 C 24.895 376.774,50.790 401.817,53.938 404.115 C 54.805 404.748,55.591 405.388,55.683 405.537 C 55.884 405.863,63.373 412.181,65.388 413.726 C 66.168 414.323,68.618 416.266,70.833 418.042 C 81.629 426.697,92.172 433.240,101.667 437.178 C 121.605 445.448,142.005 446.139,156.528 439.037 C 157.903 438.365,160.340 437.202,161.944 436.454 C 172.218 431.662,183.803 420.749,191.584 408.537 C 199.619 395.926,203.377 385.763,208.607 362.500 C 209.380 359.063,210.509 354.358,211.115 352.046 C 211.721 349.734,212.408 346.921,212.642 345.796 C 213.612 341.131,219.090 328.427,223.116 321.502 C 227.872 313.322,236.103 304.437,244.444 298.479 C 255.104 290.865,267.686 277.604,271.640 269.817 C 273.691 265.776,275.099 258.386,274.957 252.406 C 274.805 245.995,274.118 246.134,273.105 252.779 C 271.549 262.998,267.571 272.167,262.604 276.982 C 261.401 278.149,260.056 279.561,259.614 280.120 C 257.363 282.972,254.530 281.770,256.538 278.814 C 256.925 278.244,257.331 277.774,257.441 277.769 C 257.550 277.763,257.923 277.523,258.269 277.233 L 258.900 276.708 258.200 275.676 C 256.539 273.229,257.877 270.433,263.707 264.168 C 270.453 256.918,275.223 245.516,274.922 237.361 C 274.589 228.364,270.516 217.472,265.418 211.944 C 264.925 211.410,263.743 209.972,262.793 208.750 C 260.704 206.064,256.908 201.726,253.328 197.938 C 251.874 196.398,250.331 194.674,249.900 194.107 L 249.115 193.074 250.019 191.468 C 253.401 185.460,266.707 166.963,271.258 161.944 C 271.881 161.257,272.821 160.132,273.347 159.444 C 275.345 156.830,286.500 143.491,288.967 140.766 C 291.320 138.167,295.458 133.339,298.151 130.053 C 298.738 129.336,300.491 127.375,302.047 125.694 C 303.603 124.014,305.307 122.076,305.834 121.389 C 306.361 120.701,308.129 118.674,309.763 116.883 C 311.397 115.092,313.330 112.842,314.060 111.883 C 314.789 110.924,316.337 109.126,317.499 107.887 C 318.661 106.649,320.599 104.399,321.806 102.887 C 323.013 101.376,324.868 99.201,325.929 98.056 C 326.990 96.910,328.929 94.660,330.237 93.056 C 331.545 91.451,333.300 89.389,334.137 88.472 C 334.974 87.556,336.846 85.306,338.298 83.472 C 339.750 81.639,341.633 79.385,342.483 78.463 C 344.358 76.429,348.847 71.129,351.619 67.675 C 355.784 62.486,356.723 61.823,360.750 61.227 C 366.540 60.370,370.172 58.228,372.022 54.580 C 372.510 53.616,374.651 51.563,377.170 49.644 C 378.128 48.913,379.273 47.726,379.714 47.005 C 381.055 44.812,381.629 44.216,384.465 42.068 C 387.163 40.025,388.679 38.293,389.045 36.837 C 389.148 36.426,389.686 35.758,390.241 35.353 C 393.496 32.977,394.313 32.253,395.303 30.871 C 397.498 27.806,398.551 21.105,396.477 23.403 M385.746 23.875 C 387.901 25.189,387.611 28.260,385.193 29.734 C 383.308 30.884,381.643 30.109,381.226 27.888 C 380.607 24.586,383.174 22.306,385.746 23.875 M355.214 29.445 C 357.024 30.548,357.088 32.417,355.383 34.409 C 353.594 36.498,350.553 37.452,350.175 36.042 C 349.116 32.089,352.431 27.748,355.214 29.445 M377.251 33.134 C 378.920 34.255,378.650 36.369,376.602 38.220 C 374.360 40.246,371.652 38.151,372.490 35.038 C 373.105 32.753,375.348 31.856,377.251 33.134 M391.943 37.002 C 389.390 39.642,388.246 42.848,389.554 43.705 C 389.952 43.966,390.278 44.381,390.278 44.627 C 390.278 45.618,393.825 44.532,396.000 42.875 C 399.029 40.570,397.628 36.956,393.701 36.946 C 393.353 36.945,393.058 36.744,393.005 36.471 C 392.933 36.094,392.718 36.201,391.943 37.002 M354.262 40.296 C 351.762 40.776,349.470 42.429,346.785 45.688 C 344.593 48.349,344.804 48.522,348.144 46.800 C 350.521 45.575,350.645 45.540,349.964 46.284 C 348.033 48.399,348.115 50.159,350.205 51.409 C 351.604 52.246,352.516 53.077,352.768 53.744 C 352.957 54.244,353.017 54.214,353.427 53.420 C 353.676 52.940,354.758 51.526,355.833 50.278 C 360.634 44.705,359.773 39.239,354.262 40.296 M367.676 41.366 C 370.820 43.283,370.616 45.514,367.142 47.204 C 363.508 48.972,362.525 48.633,363.063 45.796 C 363.741 42.220,365.813 40.230,367.676 41.366 M386.451 43.766 C 385.552 44.395,385.688 44.692,386.966 44.897 C 388.187 45.092,388.611 45.688,388.611 47.206 C 388.611 49.127,386.882 48.753,385.694 46.575 C 384.350 44.110,381.734 46.124,382.531 49.011 C 383.140 51.216,385.175 52.020,387.591 51.010 C 390.126 49.951,391.475 45.970,389.722 44.722 C 389.264 44.396,388.889 43.950,388.889 43.731 C 388.889 43.185,387.246 43.209,386.451 43.766 M336.780 49.680 C 336.154 49.972,335.217 50.745,334.696 51.398 C 333.682 52.669,333.031 53.346,331.022 55.220 C 328.677 57.408,329.041 59.333,332.267 61.806 C 333.264 62.569,335.528 64.524,337.298 66.148 C 339.068 67.772,341.159 69.518,341.944 70.027 C 343.237 70.865,343.326 70.985,342.883 71.309 C 341.489 72.329,339.891 71.387,336.680 67.654 C 335.424 66.194,334.292 65.000,334.165 65.000 C 334.037 65.000,333.055 64.194,331.982 63.210 C 327.985 59.541,325.545 60.712,317.839 70.000 C 316.381 71.757,314.177 74.197,312.941 75.423 C 310.959 77.389,308.585 80.192,308.411 80.769 C 308.378 80.881,309.051 81.397,309.908 81.916 C 311.863 83.100,315.957 86.500,317.161 87.939 C 317.662 88.538,318.412 89.431,318.828 89.925 C 319.243 90.418,320.583 91.368,321.806 92.036 C 324.250 93.373,324.605 94.021,323.249 94.671 C 322.195 95.176,320.785 94.078,315.440 88.588 C 311.770 84.819,311.190 84.337,309.120 83.344 L 306.842 82.250 305.713 83.251 C 302.521 86.079,298.889 89.795,298.889 90.233 C 298.889 90.882,300.011 91.895,302.122 93.153 C 303.059 93.712,304.247 94.683,304.761 95.312 C 306.977 98.023,312.155 102.733,313.643 103.392 C 314.581 103.807,314.547 104.204,313.545 104.558 C 312.345 104.983,311.247 104.264,308.390 101.182 C 306.907 99.584,305.320 98.083,304.861 97.846 C 304.403 97.610,303.278 96.731,302.361 95.894 C 297.571 91.516,296.253 91.657,292.463 96.952 C 290.811 99.260,285.530 105.060,283.507 106.788 C 280.924 108.995,281.358 110.150,286.122 113.758 C 288.038 115.209,289.171 116.301,289.830 117.331 C 290.424 118.260,291.477 119.322,292.645 120.171 C 297.587 123.765,297.814 124.044,296.508 124.899 L 295.794 125.367 293.105 122.733 C 291.627 121.284,289.218 119.017,287.753 117.695 C 286.288 116.373,284.744 114.745,284.322 114.078 C 282.066 110.509,278.437 111.419,274.601 116.516 C 273.752 117.644,271.791 119.734,270.243 121.159 C 268.696 122.584,266.643 124.679,265.682 125.816 L 263.934 127.881 265.445 128.495 C 267.296 129.248,268.433 130.157,273.750 135.144 C 276.042 137.293,278.672 139.627,279.596 140.331 C 282.303 142.395,282.412 143.159,279.924 142.628 C 278.551 142.334,269.154 133.852,267.218 131.159 C 265.156 128.291,263.021 128.733,258.919 132.878 C 256.506 135.317,256.510 135.412,259.079 136.833 C 262.174 138.543,264.199 140.010,264.684 140.891 C 265.560 142.486,266.829 143.850,269.732 146.318 C 273.098 149.180,274.167 150.354,274.167 151.192 C 274.167 152.045,276.315 149.881,281.279 144.028 C 283.481 141.431,286.876 137.462,288.822 135.209 C 295.214 127.809,301.254 120.719,302.369 119.306 C 302.971 118.542,305.044 116.210,306.974 114.123 C 308.904 112.037,311.088 109.537,311.827 108.568 C 312.566 107.598,314.662 105.181,316.485 103.194 C 318.307 101.208,320.309 98.896,320.934 98.056 C 321.558 97.215,323.151 95.383,324.473 93.983 C 325.795 92.583,327.915 90.146,329.183 88.566 C 330.452 86.987,332.500 84.632,333.736 83.333 C 334.971 82.035,336.980 79.784,338.199 78.331 C 340.805 75.228,346.624 68.524,350.069 64.658 C 353.261 61.076,353.224 60.762,349.259 57.623 C 346.953 55.798,344.986 53.806,344.027 52.324 C 342.147 49.420,339.444 48.434,336.780 49.680 M376.547 52.746 C 376.321 53.113,376.938 53.518,378.265 53.873 C 379.753 54.271,380.901 55.958,380.317 56.888 C 380.149 57.154,379.804 56.961,378.990 56.147 C 377.650 54.807,376.194 54.422,375.123 55.124 C 372.403 56.906,376.341 61.067,379.573 59.827 C 380.351 59.528,382.809 55.543,382.621 54.885 C 382.174 53.321,377.261 51.591,376.547 52.746 M330.277 65.727 C 332.025 67.306,331.556 69.301,328.831 71.886 C 327.871 72.797,327.865 72.798,327.218 72.275 L 326.569 71.749 328.423 69.774 C 331.768 66.214,330.613 64.992,327.072 68.345 C 323.139 72.067,323.302 69.741,327.270 65.513 C 328.252 64.467,328.936 64.516,330.277 65.727 M320.573 71.398 C 321.182 71.708,323.058 73.380,324.743 75.112 C 326.647 77.068,328.354 78.552,329.251 79.030 C 333.529 81.308,333.574 82.944,329.460 86.653 C 327.098 88.782,326.600 89.027,328.159 87.292 C 331.343 83.751,331.361 81.765,328.229 79.800 C 327.599 79.405,326.083 78.190,324.861 77.100 C 323.639 76.011,321.545 74.211,320.208 73.101 C 318.872 71.991,317.778 71.027,317.778 70.958 C 317.778 70.615,319.600 70.901,320.573 71.398 M313.919 93.718 C 313.597 94.061,313.333 94.514,313.333 94.725 C 313.333 94.936,313.005 95.583,312.603 96.163 C 311.536 97.702,312.148 98.498,313.447 97.262 C 316.440 94.412,318.465 94.224,316.706 96.960 C 315.239 99.240,314.706 99.563,313.057 99.167 C 309.431 98.297,309.081 95.856,312.271 93.680 C 314.223 92.348,315.185 92.370,313.919 93.718 M291.561 101.679 C 291.981 101.839,293.946 103.602,295.928 105.598 C 297.909 107.593,300.430 109.891,301.529 110.705 C 304.043 112.564,305.000 113.683,305.000 114.767 L 305.000 115.602 303.822 114.676 C 303.173 114.167,301.351 112.625,299.772 111.250 C 298.193 109.875,296.255 108.203,295.465 107.534 C 292.199 104.770,289.179 101.871,289.323 101.638 C 289.530 101.303,290.624 101.323,291.561 101.679 M273.473 119.445 C 273.567 119.598,275.314 121.156,277.355 122.906 C 279.396 124.657,281.544 126.667,282.130 127.372 C 282.715 128.078,284.132 129.352,285.278 130.204 C 289.143 133.078,289.858 134.055,288.592 134.732 C 287.780 135.167,287.077 134.657,283.611 131.119 C 282.007 129.481,280.173 127.814,279.536 127.414 C 278.898 127.014,278.148 126.296,277.869 125.818 C 277.590 125.340,276.214 124.089,274.813 123.038 C 272.112 121.013,271.522 120.163,272.380 119.535 C 272.983 119.094,273.243 119.073,273.473 119.445 M255.118 137.338 C 254.649 137.542,253.774 138.310,253.174 139.044 C 252.574 139.778,251.538 140.915,250.871 141.572 C 249.338 143.081,249.448 143.359,252.070 144.604 C 254.027 145.533,255.278 146.600,255.278 147.342 C 255.278 147.763,256.849 149.240,259.444 151.259 C 263.079 154.087,265.761 156.639,266.351 157.830 C 267.308 159.766,266.739 159.958,264.861 158.333 C 264.155 157.722,263.459 157.222,263.315 157.222 C 263.171 157.222,261.376 155.597,259.326 153.611 C 257.277 151.625,255.442 150.000,255.249 150.000 C 255.056 150.000,253.805 148.875,252.470 147.500 C 249.253 144.186,249.053 144.178,245.909 147.223 C 242.881 150.155,242.690 151.035,244.841 152.143 C 245.952 152.715,249.277 155.415,252.114 158.048 C 255.862 161.528,259.548 164.722,260.532 165.346 L 261.463 165.935 260.840 166.440 C 259.652 167.401,258.959 167.114,256.407 164.603 C 255.098 163.315,252.465 160.846,250.556 159.117 C 248.646 157.387,246.304 155.166,245.351 154.181 C 242.436 151.168,239.648 152.433,234.360 159.167 C 233.580 160.160,232.336 161.685,231.594 162.556 L 230.246 164.139 231.406 164.731 C 232.044 165.056,233.457 166.237,234.547 167.354 C 235.636 168.472,237.528 170.170,238.750 171.128 C 239.972 172.086,242.097 173.960,243.472 175.291 C 244.847 176.623,246.347 177.903,246.806 178.135 C 248.662 179.078,249.507 180.862,248.187 181.053 C 247.334 181.175,241.947 176.725,233.786 169.155 C 232.544 168.003,231.064 166.711,230.497 166.283 L 229.466 165.506 227.762 166.817 C 224.173 169.579,224.137 170.924,227.598 172.899 C 228.339 173.322,230.277 174.943,231.903 176.501 C 233.530 178.059,235.487 179.785,236.252 180.335 C 237.017 180.886,238.756 182.548,240.117 184.027 C 243.405 187.603,244.287 187.474,247.442 182.957 C 248.311 181.713,250.172 179.560,251.577 178.174 C 254.936 174.860,255.246 173.611,252.811 173.200 C 251.937 173.052,251.177 172.433,248.174 169.418 C 246.199 167.435,244.077 165.514,243.458 165.149 C 242.066 164.329,236.591 158.691,236.750 158.243 C 237.025 157.472,238.296 158.190,240.545 160.386 C 241.849 161.660,243.229 162.794,243.611 162.906 C 244.432 163.148,250.782 169.329,251.998 171.069 C 254.022 173.966,256.241 173.442,259.298 169.346 C 260.113 168.254,261.551 166.611,262.493 165.694 C 263.435 164.778,264.657 163.403,265.210 162.639 C 265.762 161.875,266.915 160.500,267.771 159.583 C 268.628 158.667,269.937 157.104,270.681 156.111 C 271.425 155.118,272.344 153.968,272.723 153.555 C 273.742 152.444,273.233 151.512,270.392 149.294 C 269.119 148.301,267.542 146.850,266.886 146.071 C 266.231 145.291,264.361 143.607,262.732 142.328 C 261.103 141.048,259.371 139.497,258.883 138.881 C 257.486 137.118,256.527 136.725,255.118 137.338 M173.611 148.231 C 164.784 149.357,158.793 152.134,151.640 158.413 C 149.134 160.613,146.576 163.089,145.957 163.915 C 145.337 164.741,143.890 166.617,142.740 168.083 C 141.590 169.550,139.982 171.987,139.168 173.500 C 138.354 175.012,136.913 177.563,135.967 179.167 C 135.021 180.771,133.669 183.208,132.962 184.583 C 127.695 194.832,113.041 208.568,103.193 212.487 C 102.277 212.852,101.186 213.386,100.768 213.675 C 99.628 214.461,95.637 216.282,92.721 217.346 C 91.301 217.864,89.326 218.661,88.333 219.115 C 87.340 219.570,84.340 220.692,81.667 221.608 C 78.993 222.525,75.431 223.801,73.750 224.444 C 72.069 225.088,69.444 226.051,67.917 226.585 C 53.091 231.763,36.944 240.974,25.666 250.686 C 23.620 252.448,19.171 257.851,17.767 260.278 C 17.105 261.424,15.724 263.690,14.698 265.314 C 4.657 281.222,1.443 301.367,6.498 316.721 C 9.495 325.823,12.634 331.981,18.118 339.516 C 19.146 340.928,21.296 343.908,22.896 346.138 C 25.989 350.447,45.776 370.780,50.623 374.629 C 51.732 375.510,53.889 377.427,55.417 378.888 C 58.051 381.409,60.518 383.491,66.116 387.917 C 67.469 388.986,69.427 390.587,70.468 391.473 C 71.509 392.360,73.424 393.833,74.722 394.746 C 76.021 395.659,77.923 397.133,78.950 398.022 C 85.433 403.631,100.972 412.577,109.167 415.418 C 132.902 423.646,153.150 420.903,171.944 406.913 C 178.796 401.812,187.540 392.273,190.758 386.389 C 191.301 385.396,192.330 383.708,193.045 382.639 C 197.164 376.474,202.645 362.727,205.006 352.639 C 205.435 350.806,206.469 346.556,207.304 343.194 C 208.138 339.833,209.477 334.333,210.279 330.972 C 211.752 324.797,213.626 318.801,215.386 314.635 C 215.915 313.384,216.683 311.504,217.093 310.456 C 219.914 303.259,226.607 292.865,231.520 288.056 C 232.691 286.910,234.084 285.383,234.618 284.664 C 235.151 283.944,236.424 282.746,237.446 282.002 C 241.142 279.312,247.543 274.165,251.519 270.688 C 252.746 269.615,254.409 268.258,255.214 267.674 C 266.170 259.720,272.898 242.928,270.181 230.320 C 269.757 228.356,269.196 226.925,266.942 222.059 C 264.811 217.456,259.075 209.630,254.034 204.444 C 250.632 200.945,247.778 197.597,247.778 197.106 C 247.778 196.888,247.393 196.325,246.923 195.855 C 245.019 193.951,241.944 195.290,241.944 198.024 L 241.944 198.863 242.724 198.416 C 243.924 197.727,244.783 198.124,246.581 200.194 C 247.468 201.216,249.333 203.184,250.724 204.567 C 252.116 205.951,254.272 208.333,255.515 209.861 C 256.759 211.389,258.378 213.357,259.114 214.236 C 266.239 222.743,269.562 233.184,267.912 241.884 C 266.870 247.378,264.137 254.179,261.898 256.854 C 261.236 257.644,260.382 258.810,260.000 259.445 C 258.661 261.671,249.601 269.990,245.833 272.453 C 244.993 273.002,243.618 274.088,242.778 274.865 C 241.938 275.643,239.930 277.295,238.317 278.536 C 223.918 289.618,213.974 306.692,207.942 330.694 C 207.251 333.444,206.070 338.132,205.317 341.111 C 204.565 344.090,203.608 348.020,203.191 349.843 C 202.774 351.667,201.815 355.104,201.060 357.482 C 200.305 359.860,199.310 362.993,198.848 364.444 C 196.527 371.740,190.749 382.672,185.580 389.549 C 181.152 395.440,173.583 402.796,169.444 405.231 C 168.757 405.636,167.324 406.621,166.260 407.421 C 160.518 411.739,149.962 415.698,140.417 417.115 C 123.642 419.604,99.083 411.111,81.069 396.592 C 78.561 394.571,75.544 392.184,74.364 391.289 C 73.185 390.394,71.188 388.769,69.928 387.678 C 68.668 386.587,66.450 384.734,64.999 383.561 C 63.548 382.387,61.174 380.338,59.722 379.007 C 58.271 377.675,55.913 375.653,54.482 374.513 C 51.139 371.848,40.769 361.840,32.770 353.561 C 11.871 331.927,4.218 314.384,6.646 293.672 C 7.646 285.133,13.328 270.417,18.277 263.545 C 19.186 262.283,20.628 260.176,21.481 258.864 C 23.092 256.386,26.328 253.013,29.444 250.562 C 30.438 249.782,31.969 248.562,32.847 247.852 C 34.606 246.432,39.202 243.112,41.806 241.381 C 43.807 240.051,56.177 233.777,59.952 232.179 C 64.881 230.091,72.890 226.896,75.139 226.119 C 82.867 223.452,92.031 219.981,95.046 218.580 C 96.981 217.680,98.649 216.944,98.753 216.944 C 98.857 216.944,101.344 215.685,104.279 214.145 C 111.001 210.620,115.144 207.552,122.570 200.601 C 128.082 195.441,129.353 194.027,131.850 190.278 C 132.613 189.132,133.745 187.444,134.367 186.528 C 134.988 185.611,136.365 183.236,137.426 181.250 C 147.339 162.695,157.529 153.374,170.849 150.675 C 179.302 148.962,190.539 152.782,200.556 160.773 C 202.160 162.053,204.660 163.892,206.111 164.859 C 207.563 165.827,209.257 167.161,209.876 167.823 C 210.760 168.769,213.474 171.987,213.778 172.451 C 213.884 172.613,215.448 171.714,215.802 171.288 C 216.573 170.359,214.669 168.364,208.750 163.901 C 207.069 162.633,205.007 161.015,204.167 160.304 C 194.798 152.377,181.694 147.199,173.611 148.231 M222.603 172.487 C 221.413 172.770,219.711 174.041,218.731 175.376 C 216.639 178.227,213.372 181.932,209.020 186.389 C 199.773 195.857,192.485 203.979,191.075 206.389 C 190.435 207.481,197.458 200.380,201.650 195.694 C 203.154 194.014,207.598 189.326,211.526 185.278 C 215.947 180.722,218.874 177.480,219.209 176.771 C 220.233 174.605,221.838 173.696,223.621 174.272 C 225.568 174.902,224.660 176.504,222.644 175.998 C 220.051 175.348,230.003 186.176,235.226 189.687 C 238.101 191.620,238.623 192.146,238.038 192.517 C 236.749 193.332,234.819 191.885,226.610 183.951 C 221.399 178.914,218.579 178.114,216.741 181.149 C 215.537 183.136,215.418 182.925,220.198 187.265 C 222.610 189.455,225.771 192.454,227.222 193.930 C 232.261 199.053,234.729 199.506,236.416 195.617 C 236.701 194.961,238.052 193.253,239.431 191.805 C 242.817 188.251,242.956 187.197,240.214 185.870 C 239.552 185.549,238.515 184.773,237.908 184.144 C 237.302 183.516,235.026 181.510,232.851 179.688 C 230.676 177.866,228.382 175.678,227.753 174.828 C 226.170 172.685,224.656 171.997,222.603 172.487 M229.291 179.613 C 232.017 180.947,236.081 185.678,235.232 186.527 C 234.565 187.194,228.344 181.989,227.119 179.739 L 226.355 178.334 227.082 178.610 C 227.481 178.762,228.476 179.214,229.291 179.613 M213.512 185.841 C 210.251 186.818,211.746 190.372,217.030 194.207 C 218.129 195.004,220.936 197.509,223.269 199.773 C 225.602 202.037,227.602 203.888,227.714 203.886 C 228.254 203.879,230.879 202.132,231.289 201.507 C 232.058 200.334,231.327 199.329,227.313 196.038 C 225.353 194.431,221.938 191.418,219.722 189.342 C 215.524 185.408,215.327 185.297,213.512 185.841 M249.167 186.944 C 248.840 187.403,248.511 187.778,248.434 187.778 C 248.358 187.778,248.563 187.403,248.889 186.944 C 249.215 186.486,249.545 186.111,249.621 186.111 C 249.698 186.111,249.493 186.486,249.167 186.944 M208.125 190.968 C 206.379 192.232,208.264 196.487,211.349 198.247 C 212.058 198.652,213.704 199.993,215.006 201.228 C 216.308 202.462,218.685 204.673,220.289 206.141 L 223.204 208.810 224.961 207.644 C 227.705 205.823,227.846 205.258,225.903 203.883 C 223.410 202.121,219.300 198.513,215.407 194.670 C 211.120 190.437,209.790 189.761,208.125 190.968 M203.959 195.826 C 201.035 197.153,202.023 199.547,207.135 203.524 C 209.481 205.350,214.783 210.102,216.777 212.166 L 218.415 213.862 219.416 213.444 C 223.083 211.912,222.790 210.483,217.916 206.111 C 216.127 204.507,213.293 201.944,211.618 200.417 C 205.676 194.999,205.721 195.026,203.959 195.826 M176.250 200.440 C 146.718 205.002,134.996 238.207,154.441 262.218 C 157.493 265.987,157.497 265.973,151.751 271.992 C 149.642 274.201,147.417 276.706,146.806 277.559 C 146.194 278.411,144.455 280.501,142.939 282.202 C 141.424 283.904,139.802 285.815,139.335 286.451 L 138.485 287.606 139.451 287.070 C 140.955 286.235,151.496 275.425,153.253 272.917 C 157.419 266.966,158.632 266.507,163.491 269.044 C 165.118 269.893,166.529 270.505,166.627 270.403 C 166.947 270.072,163.716 267.381,161.484 266.119 C 151.050 260.218,143.786 243.667,146.268 231.447 C 150.067 212.742,162.805 202.133,182.361 201.386 C 187.983 201.172,189.444 201.002,189.444 200.563 C 189.444 199.934,180.093 199.846,176.250 200.440 M199.236 200.718 C 197.412 202.155,198.035 203.809,201.345 206.310 C 202.515 207.193,206.030 210.385,209.156 213.403 C 215.549 219.574,214.935 219.173,216.240 218.027 C 218.000 216.482,217.409 214.992,213.963 212.277 C 212.776 211.342,210.950 209.631,209.905 208.475 C 208.336 206.739,201.003 200.303,200.332 200.073 C 200.226 200.036,199.733 200.327,199.236 200.718 M195.355 205.368 C 191.671 206.711,192.874 209.012,200.417 215.056 C 201.486 215.913,203.611 217.885,205.139 219.438 C 206.667 220.991,208.378 222.632,208.941 223.085 L 209.965 223.908 211.241 223.308 C 214.094 221.967,214.089 220.613,211.218 217.941 C 210.055 216.858,208.024 214.906,206.704 213.603 C 204.268 211.197,196.852 204.983,196.463 205.021 C 196.346 205.033,195.847 205.189,195.355 205.368 M177.844 208.374 C 160.167 210.909,149.183 227.365,153.589 244.712 C 155.619 252.706,161.094 259.819,167.439 262.706 C 168.313 263.103,169.465 263.716,170.000 264.066 C 171.492 265.045,173.913 265.777,177.319 266.278 C 191.215 268.322,205.363 259.789,209.145 247.083 C 210.883 241.247,211.081 230.098,209.502 227.076 C 208.445 225.054,197.635 214.682,194.444 212.628 C 193.757 212.186,192.802 211.492,192.322 211.086 C 189.387 208.603,183.689 207.535,177.844 208.374 M187.345 211.090 C 196.242 212.978,206.217 222.580,207.868 230.846 C 210.272 242.882,208.100 250.871,200.380 258.385 C 196.788 261.882,193.382 263.653,188.740 264.436 C 165.674 268.330,148.520 250.451,154.905 229.174 C 156.642 223.386,159.528 219.346,165.313 214.603 C 169.767 210.951,179.430 209.411,187.345 211.090 M177.361 212.250 C 161.760 214.477,151.826 230.005,156.437 244.955 C 158.716 252.342,165.622 260.534,169.587 260.553 C 171.497 260.562,176.641 255.668,176.664 253.819 C 176.675 252.943,174.593 254.693,172.974 256.920 C 171.451 259.016,168.537 259.939,167.217 258.745 C 166.012 257.654,166.801 255.874,169.081 254.537 C 170.248 253.853,171.111 252.614,171.111 251.623 C 171.111 251.436,169.817 252.557,168.235 254.114 C 165.110 257.189,164.167 257.646,164.167 256.084 C 164.167 254.439,168.757 249.960,171.407 249.018 C 173.243 248.366,174.259 248.673,176.109 250.437 C 178.535 252.752,178.856 252.674,182.488 248.889 C 185.930 245.302,186.617 245.059,188.541 246.749 C 189.114 247.252,189.938 247.887,190.370 248.159 C 193.377 250.050,190.693 256.183,186.567 256.853 C 184.836 257.134,182.850 254.603,184.288 253.947 C 185.834 253.243,188.044 249.444,186.908 249.444 C 186.340 249.444,184.865 250.504,184.221 251.374 C 183.874 251.844,183.094 252.541,182.489 252.923 C 180.090 254.438,181.217 256.238,186.854 259.898 L 190.053 261.975 191.902 261.381 C 199.821 258.833,206.013 250.594,206.963 241.341 C 208.738 224.043,194.281 209.835,177.361 212.250 M183.855 217.986 C 182.391 219.476,180.906 221.132,180.556 221.667 C 180.205 222.201,178.341 224.201,176.413 226.111 C 171.527 230.950,161.682 241.483,160.772 242.845 C 160.163 243.755,159.981 243.884,159.835 243.505 C 159.467 242.546,160.531 240.645,162.311 239.082 C 163.260 238.249,164.220 237.208,164.444 236.770 C 164.865 235.947,167.576 232.966,174.975 225.192 C 177.329 222.718,180.049 219.738,181.018 218.570 C 182.811 216.410,184.463 215.278,185.828 215.278 C 186.427 215.278,186.168 215.633,183.855 217.986 M188.830 219.215 C 187.870 220.463,186.302 222.275,185.347 223.242 C 184.392 224.208,183.611 225.132,183.611 225.294 C 183.611 225.457,181.455 227.820,178.819 230.545 C 170.917 238.718,167.175 242.766,164.819 245.695 C 162.097 249.079,161.742 249.408,161.496 248.766 C 161.178 247.938,162.279 246.121,164.145 244.395 C 165.150 243.466,166.410 242.169,166.944 241.513 C 171.017 236.516,173.651 233.567,178.583 228.481 C 181.699 225.268,184.749 221.951,185.359 221.111 C 187.385 218.321,188.941 216.948,190.080 216.945 C 190.456 216.945,190.149 217.501,188.830 219.215 M196.660 220.226 C 197.046 220.511,197.540 221.250,197.758 221.867 L 198.154 222.988 196.327 225.314 C 195.322 226.593,193.975 228.139,193.333 228.750 C 192.691 229.361,191.256 230.986,190.143 232.361 C 189.031 233.736,187.370 235.514,186.453 236.311 C 185.535 237.109,183.990 238.722,183.017 239.895 C 178.075 245.862,176.944 246.897,176.944 245.458 C 176.944 244.799,180.492 240.486,184.611 236.140 C 186.000 234.673,187.332 233.097,187.570 232.639 C 187.808 232.181,188.967 230.872,190.145 229.731 C 194.339 225.671,196.944 222.578,196.944 221.660 C 196.944 219.697,194.294 220.159,192.652 222.410 C 191.043 224.614,187.659 228.486,184.183 232.097 C 182.264 234.090,179.449 237.153,177.926 238.902 C 173.996 243.418,172.878 244.465,170.686 245.676 C 167.849 247.244,165.469 248.994,164.339 250.341 C 163.523 251.314,163.343 251.424,163.339 250.950 C 163.324 249.430,165.893 246.757,169.722 244.308 C 172.013 242.843,175.593 239.528,177.224 237.361 C 177.799 236.597,179.862 234.347,181.807 232.361 C 183.752 230.375,186.247 227.625,187.351 226.250 C 188.455 224.875,189.560 223.583,189.806 223.379 C 190.051 223.175,190.567 222.471,190.952 221.815 C 192.232 219.630,194.864 218.898,196.660 220.226 M200.556 226.407 C 200.556 227.357,200.047 228.073,197.396 230.850 C 194.770 233.601,193.421 235.158,190.791 238.472 C 188.606 241.226,185.213 244.223,185.602 243.055 C 185.770 242.551,190.961 236.348,193.478 233.644 C 194.704 232.327,196.382 230.375,197.208 229.306 C 199.881 225.845,200.556 225.261,200.556 226.407 M202.880 229.236 C 203.491 231.516,202.616 233.602,199.993 236.118 C 198.777 237.284,198.056 238.198,198.056 238.571 C 198.056 239.419,196.360 241.182,194.283 242.494 C 192.376 243.698,192.193 243.983,193.037 244.435 C 194.783 245.369,196.279 244.558,198.325 241.568 C 200.043 239.057,203.064 235.833,203.699 235.833 C 205.028 235.833,204.202 238.560,202.226 240.694 C 201.518 241.458,199.994 243.208,198.838 244.583 C 195.635 248.395,195.886 248.248,194.044 247.404 C 189.676 245.405,188.409 242.882,190.621 240.593 C 191.453 239.732,192.893 238.090,193.820 236.944 C 195.961 234.299,201.901 228.611,202.523 228.611 C 202.628 228.611,202.788 228.892,202.880 229.236 M197.637 235.074 C 194.043 238.730,192.499 240.492,191.497 242.083 L 190.972 242.917 192.083 242.035 C 193.473 240.931,196.769 237.532,198.231 235.694 C 199.585 233.991,201.470 231.387,201.343 231.393 C 201.292 231.396,199.624 233.052,197.637 235.074 M146.002 256.687 C 145.561 257.363,142.619 260.479,139.466 263.611 C 134.577 268.466,126.817 277.222,127.403 277.222 C 127.908 277.222,130.771 274.683,132.676 272.545 C 136.058 268.751,139.367 265.421,142.160 263.003 C 144.877 260.651,146.089 259.147,146.647 257.433 C 147.222 255.669,146.906 255.303,146.002 256.687 M146.943 263.783 C 145.199 265.751,141.887 269.299,139.583 271.667 C 135.988 275.361,131.944 280.010,131.944 280.448 C 131.944 281.921,148.147 265.322,149.591 262.370 C 150.878 259.741,150.209 260.097,146.943 263.783 M102.014 262.914 C 98.805 264.309,93.611 269.996,93.611 272.115 C 93.611 273.803,94.260 274.664,96.961 276.556 C 99.841 278.574,100.138 278.965,102.629 284.016 C 105.005 288.836,106.515 290.689,111.687 295.139 C 113.107 296.361,116.153 299.178,118.454 301.400 C 120.756 303.621,123.764 306.369,125.139 307.507 C 126.514 308.645,129.209 311.090,131.129 312.941 C 135.098 316.768,137.471 318.178,142.601 319.761 C 146.506 320.966,147.161 321.348,150.224 324.213 C 154.192 327.926,154.738 328.229,156.353 327.621 C 159.054 326.603,160.970 324.844,163.355 321.189 C 165.298 318.214,165.262 317.447,163.083 315.337 C 162.182 314.464,160.276 312.606,158.847 311.208 C 157.419 309.810,155.286 307.855,154.107 306.863 C 150.814 304.093,147.655 301.221,144.877 298.472 C 143.487 297.097,140.733 294.535,138.755 292.778 C 136.778 291.021,134.143 288.646,132.900 287.500 C 131.657 286.354,130.132 285.057,129.512 284.618 C 128.891 284.179,127.543 282.952,126.515 281.891 C 125.487 280.829,124.007 279.485,123.226 278.903 C 122.445 278.322,121.493 277.503,121.111 277.083 C 120.729 276.663,119.167 275.312,117.639 274.081 C 116.111 272.849,113.079 270.209,110.900 268.213 C 107.335 264.946,104.013 262.482,103.214 262.511 C 103.050 262.517,102.511 262.698,102.014 262.914 M151.944 264.809 C 150.568 266.825,148.665 269.080,145.724 272.179 C 144.325 273.654,142.663 275.549,142.031 276.389 C 141.400 277.229,139.935 278.979,138.777 280.278 C 136.806 282.487,135.392 284.651,135.711 284.970 C 136.048 285.307,144.691 276.192,146.004 274.115 C 146.360 273.552,147.838 271.898,149.289 270.440 C 152.086 267.630,153.050 266.150,153.109 264.576 C 153.161 263.190,153.032 263.216,151.944 264.809 M158.581 272.986 C 157.734 273.865,156.032 275.771,154.798 277.222 C 153.565 278.674,152.156 280.236,151.667 280.694 C 151.178 281.153,150.388 282.090,149.912 282.778 C 149.435 283.465,148.096 285.090,146.936 286.389 C 144.439 289.183,143.333 290.757,143.333 291.516 C 143.333 292.318,146.895 288.731,150.218 284.583 C 151.686 282.750,154.053 280.025,155.478 278.528 C 158.205 275.662,159.845 273.426,160.153 272.153 C 160.402 271.124,160.350 271.152,158.581 272.986 M164.996 272.931 C 164.517 274.642,163.405 276.099,159.604 280.000 C 157.892 281.757,156.160 283.694,155.756 284.306 C 155.351 284.917,153.692 286.979,152.068 288.889 C 149.254 292.199,147.560 294.597,147.839 294.876 C 148.466 295.503,155.663 287.302,157.529 283.835 C 158.502 282.027,159.258 281.110,161.439 279.093 C 165.229 275.588,166.448 273.549,165.630 272.088 C 165.415 271.703,165.296 271.861,164.996 272.931 M116.822 276.194 C 118.172 277.294,120.033 278.884,120.958 279.727 C 121.882 280.570,123.926 282.300,125.499 283.571 C 128.652 286.118,133.909 291.124,132.083 289.841 C 130.691 288.862,124.398 283.769,121.781 281.503 C 119.503 279.531,117.625 278.366,116.208 278.046 C 114.217 277.597,114.415 278.100,116.873 279.733 C 118.211 280.622,120.018 281.952,120.890 282.688 C 121.761 283.425,124.083 285.358,126.050 286.984 C 128.017 288.610,130.366 290.613,131.271 291.436 C 132.176 292.258,133.417 293.294,134.028 293.738 C 134.639 294.182,136.326 295.687,137.778 297.081 C 139.229 298.476,141.104 300.168,141.944 300.841 C 142.785 301.515,144.147 302.672,144.972 303.412 C 148.046 306.170,149.389 306.873,148.086 305.043 C 147.430 304.121,147.338 303.611,147.828 303.611 C 148.238 303.611,154.292 309.690,154.087 309.895 C 153.087 310.895,146.392 307.469,142.965 304.204 C 141.411 302.723,139.326 300.833,138.333 300.005 C 137.340 299.176,135.704 297.743,134.696 296.819 C 133.689 295.895,131.264 293.764,129.308 292.083 C 127.351 290.403,124.738 288.145,123.500 287.065 C 121.564 285.377,116.083 281.086,115.036 280.439 C 114.402 280.047,113.352 280.547,112.889 281.462 C 112.096 283.031,111.388 283.611,110.263 283.611 C 107.891 283.611,108.213 282.154,111.320 278.832 C 113.561 276.436,113.696 275.936,112.283 275.269 C 111.509 274.904,111.429 274.778,111.731 274.398 C 112.637 273.253,113.653 273.612,116.822 276.194 M116.676 285.977 C 119.297 287.332,118.319 290.746,115.354 290.588 C 113.964 290.514,113.439 287.375,114.603 286.090 C 115.186 285.445,115.604 285.423,116.676 285.977 M121.394 289.864 C 123.035 290.712,123.206 292.128,121.833 293.500 C 119.995 295.338,117.708 293.701,118.722 291.273 C 119.371 289.721,120.236 289.265,121.394 289.864 M126.445 294.180 C 127.489 295.224,127.405 296.700,126.244 297.708 C 124.072 299.595,121.869 296.453,123.775 294.188 C 124.682 293.110,125.373 293.108,126.445 294.180 M130.237 297.896 C 132.268 298.946,131.818 301.682,129.544 302.109 C 127.502 302.492,126.594 300.714,127.671 298.445 C 128.174 297.384,128.933 297.221,130.237 297.896 M135.392 302.521 C 136.314 303.617,136.310 304.526,135.379 305.258 C 133.897 306.423,131.389 305.786,131.389 304.244 C 131.389 301.889,133.937 300.792,135.392 302.521 M139.466 306.090 C 141.668 308.292,139.055 311.835,136.795 309.712 C 135.330 308.336,136.323 305.397,138.285 305.297 C 138.488 305.286,139.019 305.643,139.466 306.090 M149.147 309.323 C 151.276 309.733,150.722 310.519,146.741 312.737 C 144.094 314.212,143.087 314.457,142.513 313.766 C 141.796 312.901,143.870 310.193,145.951 309.280 C 146.754 308.927,147.112 308.932,149.147 309.323 M3.738 321.389 C 4.340 324.441,5.589 328.176,6.943 330.972 C 8.287 333.747,8.744 336.245,8.510 339.542 L 8.333 342.033 9.583 343.180 C 11.033 344.512,11.108 345.002,10.390 348.474 C 9.811 351.271,10.021 352.497,11.509 355.027 C 13.696 358.743,13.126 359.279,10.255 356.205 C 4.674 350.228,2.961 344.094,2.626 328.876 C 2.387 318.032,2.683 316.039,3.738 321.389 " stroke="none" fill="#000000" fill-rule="evenodd"></path></g></svg>